<?xml version="1.0" standalone="no"?>
<!DOCTYPE svg PUBLIC "-//W3C//DTD SVG 20010904//EN"
 "http://www.w3.org/TR/2001/REC-SVG-20010904/DTD/svg10.dtd">
<svg version="1.0" xmlns="http://www.w3.org/2000/svg"
 width="800.000000pt" height="800.000000pt" viewBox="0 0 800.000000 800.000000"
 preserveAspectRatio="xMidYMid meet">
<metadata>
Created by potrace 1.11, written by Peter Selinger 2001-2013
</metadata>
<g transform="translate(0.000000,800.000000) scale(0.100000,-0.100000)"
fill="#000000" stroke="none">
<path d="M3848 7995 c-2 -2 -57 -6 -123 -9 -66 -4 -127 -9 -135 -11 -8 -2 -44
-6 -80 -10 -36 -3 -101 -12 -145 -20 -44 -8 -93 -17 -110 -20 -16 -3 -52 -10
-80 -16 -27 -6 -61 -13 -75 -15 -312 -60 -880 -290 -1160 -468 -194 -124 -375
-250 -405 -281 -5 -6 -32 -29 -60 -50 -27 -22 -52 -42 -55 -45 -3 -3 -18 -16
-35 -29 -57 -44 -205 -185 -203 -193 2 -4 174 -179 382 -388 l380 -380 25 23
c14 12 48 43 76 69 99 92 222 190 331 263 62 41 115 75 120 75 4 0 15 6 23 14
24 21 234 127 341 173 148 63 387 140 524 167 144 30 159 32 246 41 36 4 74 9
85 12 52 12 477 10 585 -3 425 -51 837 -184 1138 -366 34 -21 64 -38 67 -38
20 0 299 -205 415 -304 87 -75 263 -262 350 -371 88 -110 115 -149 224 -318
47 -74 142 -264 194 -389 90 -214 158 -466 188 -688 3 -25 8 -48 10 -51 16
-28 24 -478 10 -624 -64 -690 -359 -1321 -845 -1805 -80 -80 -186 -173 -261
-230 -25 -19 -47 -37 -50 -41 -3 -3 -66 -46 -140 -95 -334 -221 -726 -376
-1110 -439 -52 -9 -106 -18 -120 -20 -150 -25 -603 -26 -737 -1 -22 4 -97 16
-138 22 -105 15 -375 86 -470 124 -11 4 -58 23 -105 41 -97 37 -323 148 -420
205 -127 76 -247 165 -401 297 l-157 134 -382 -382 -383 -383 35 -33 c93 -89
168 -157 250 -226 15 -12 80 -61 145 -110 65 -48 120 -91 121 -95 2 -5 8 -8
13 -8 5 0 31 -15 57 -33 149 -105 448 -263 672 -357 170 -71 459 -165 600
-195 8 -2 57 -13 108 -24 51 -11 139 -27 195 -36 56 -8 113 -17 127 -19 179
-31 740 -38 900 -12 14 3 52 7 85 11 33 3 96 12 140 20 44 8 96 16 115 20 184
32 508 122 655 183 39 16 73 30 77 31 74 18 385 170 551 268 196 116 484 321
573 408 11 11 35 32 53 47 102 83 315 304 434 450 311 381 550 812 700 1260
40 119 90 290 102 346 2 9 8 37 14 62 5 25 12 59 15 75 3 17 10 55 16 85 6 30
13 71 15 90 3 19 7 46 10 59 2 13 7 56 11 95 3 39 8 74 10 77 5 9 18 290 18
394 0 100 -13 359 -19 390 -2 11 -7 49 -10 85 -5 56 -14 111 -40 258 -102 579
-367 1178 -734 1662 -238 315 -481 559 -781 784 -63 47 -120 90 -126 95 -14
11 -150 100 -179 117 -11 6 -55 32 -98 58 -376 224 -868 404 -1317 480 -140
24 -165 28 -275 41 -122 14 -557 29 -567 20z"/>
<path d="M3947 6664 c-1 -1 -49 -4 -107 -7 -115 -7 -253 -23 -315 -37 -22 -5
-56 -12 -75 -15 -201 -34 -584 -180 -770 -293 -19 -12 -42 -25 -50 -29 -31
-14 -188 -123 -280 -194 -87 -67 -304 -274 -376 -359 -16 -19 -60 -75 -96
-125 -37 -49 -75 -101 -86 -115 -24 -33 -109 -176 -157 -265 -88 -166 -200
-471 -229 -625 -2 -14 -9 -46 -15 -73 -6 -26 -14 -64 -17 -85 -3 -20 -9 -64
-14 -97 -22 -144 -29 -378 -16 -545 7 -82 32 -269 41 -300 2 -8 6 -26 9 -40
47 -265 181 -601 341 -860 167 -268 420 -545 665 -725 74 -55 144 -105 155
-112 11 -7 49 -30 85 -51 245 -149 585 -278 855 -326 17 -3 55 -10 85 -16 30
-5 88 -12 129 -16 41 -3 84 -8 95 -10 24 -5 346 -5 391 0 17 2 66 7 110 12 44
4 82 8 85 9 3 1 28 5 55 9 297 47 680 191 945 355 78 49 240 161 266 186 6 5
39 33 73 60 90 74 278 269 361 376 191 246 336 514 431 797 37 109 82 274 92
337 3 17 10 57 15 90 14 74 20 137 28 285 3 63 8 118 11 123 2 4 -233 7 -524
7 -290 0 -721 0 -957 0 -236 0 -430 -1 -432 -3 -2 -1 147 -153 331 -337 l334
-334 -20 -39 c-91 -178 -272 -397 -424 -513 -246 -188 -528 -303 -815 -331
-109 -11 -313 -5 -412 12 -90 15 -253 57 -293 75 -11 5 -58 25 -104 46 -180
79 -330 183 -476 330 -73 74 -145 159 -145 172 0 6 -4 12 -8 14 -18 7 -59 72
-127 203 -66 126 -134 325 -149 435 -3 25 -10 70 -15 100 -10 55 -7 342 3 390
2 14 10 54 16 90 13 74 17 90 61 220 27 81 116 274 141 305 5 6 25 35 46 66
56 85 106 145 202 239 160 158 307 250 575 361 30 12 163 47 224 59 134 25
316 32 471 18 267 -25 555 -138 773 -305 34 -26 64 -50 67 -53 3 -3 27 -25 53
-50 l47 -44 380 379 c209 209 380 385 380 391 0 19 -143 145 -280 248 -41 30
-79 59 -85 64 -51 42 -415 242 -440 242 -3 0 -27 10 -53 22 -139 63 -472 154
-637 174 -33 3 -69 8 -79 10 -39 7 -343 23 -349 18z"/>
<path d="M3708 5305 c-3 -3 -16 -8 -29 -10 -55 -11 -190 -60 -271 -100 -407
-202 -678 -588 -735 -1050 -7 -60 -7 -268 1 -310 3 -16 11 -57 17 -90 57 -317
245 -615 517 -820 134 -100 359 -203 505 -230 l37 -7 0 1311 c0 1265 -1 1311
-18 1311 -10 0 -21 -2 -24 -5z"/>
</g>
</svg>
